# xmcd
#
# Track frame offsets: 
#        150
#        2500
#        4681
#        22639
#        41300
#        56607
#        72896
#        86420
#        102946
#        116529
#        131359
#        146165
#        157543
#        172178
#        187506
#        200633
#        213206
#        227420
#        241226
#        254558
#        270788
#        283406
#        296651
#        309813
#        321366
#        332588
#        343952
#
# Disc length: 4734 seconds
#
# Revision: 0
# Processed by: cddbd v1.5.2PL0 Copyright (c) Steve Scherf et al.
# Submitted via: ExactAudioCopy v0.95b3
#
DISCID=68127c1b
DTITLE=The Monkees - The Monkees Complete 15 of 28  
DYEAR=1900
DGENRE=
TTITLE0=Alvin
TTITLE1=Alvin (alt. take)
TTITLE2=Auntie's Municipal Court (alt. mix 1)
TTITLE3=Auntie's Municipal Court (alt. mix 2)
TTITLE4=Carlisle Wheeling
TTITLE5=Carlisle Wheeling (alt. mix 1)
TTITLE6=Carlisle Wheeling (alt. mix 2 from acetate)
TTITLE7=Carlisle Wheeling (alt. mix 2 from tape)
TTITLE8=Carlisle Wheeling (alt. mix 3)
TTITLE9=Ceiling In My Room (acetate)
TTITLE10=Ceiling In My Room (stereo master)
TTITLE11=Changes
TTITLE12=Come On In
TTITLE13=Come On In (alt. mix)
TTITLE14=D.W. Washburn
TTITLE15=D.W. Washburn (mono)
TTITLE16=Daydream Believer (alt. mix)
TTITLE17=Daydream Believer (backing track)
TTITLE18=Daydream Believer (remix)
TTITLE19=Daydream Believer (4.1 composite)
TTITLE20=I'm Gonna Try
TTITLE21=It's Nice To Be With You
TTITLE22=It's Nice To Be With You (mono)
TTITLE23=Lady's Baby
TTITLE24=Lady's Baby (alt. mix 1)
TTITLE25=Lady's Baby (alt. mix 2)
TTITLE26=Lady's Baby (alt. mix 3)
EXTD=
EXTT0=
EXTT1=
EXTT2=
EXTT3=
EXTT4=
EXTT5=
EXTT6=
EXTT7=
EXTT8=
EXTT9=
EXTT10=
EXTT11=
EXTT12=
EXTT13=
EXTT14=
EXTT15=
EXTT16=
EXTT17=
EXTT18=
EXTT19=
EXTT20=
EXTT21=
EXTT22=
EXTT23=
EXTT24=
EXTT25=
EXTT26=
PLAYORDER=
